<?xml version="1.0" encoding="utf-8"?>
<!-- Generator: Adobe Illustrator 26.0.0, SVG Export Plug-In . SVG Version: 6.00 Build 0)  -->
<svg version="1.1" xmlns="http://www.w3.org/2000/svg" xmlns:xlink="http://www.w3.org/1999/xlink" x="0px" y="0px"
	 viewBox="0 0 500 500" style="enable-background:new 0 0 500 500;" xml:space="preserve">
<style type="text/css">
	.st0{fill:#FFE600;}
	.st1{opacity:0.8;fill:#8BF41C;}
	.st2{fill:#FFFFFF;stroke:#263238;stroke-linecap:round;stroke-linejoin:round;stroke-miterlimit:10;}
	.st3{fill:#263238;stroke:#263238;stroke-linecap:round;stroke-linejoin:round;stroke-miterlimit:10;}
	.st4{fill:#263238;}
	.st5{fill:none;stroke:#263238;stroke-linecap:round;stroke-linejoin:round;stroke-miterlimit:10;}
	.st6{fill:none;stroke:#FFFFFF;stroke-linecap:round;stroke-linejoin:round;stroke-miterlimit:10;stroke-dasharray:3;}
	.st7{fill:none;stroke:#263238;stroke-linecap:round;stroke-linejoin:round;stroke-miterlimit:10;stroke-dasharray:3;}
	.st8{fill:none;stroke:#263238;stroke-linecap:round;stroke-linejoin:round;}
	.st9{fill:none;stroke:#263238;stroke-linecap:round;stroke-linejoin:round;stroke-dasharray:3.0244,3.0244;}
	.st10{fill:none;stroke:#263238;stroke-linecap:round;stroke-linejoin:round;stroke-dasharray:2.8974,2.8974;}
	.st11{fill:#92E3A9;stroke:#263238;stroke-linecap:round;stroke-linejoin:round;stroke-miterlimit:10;}
</style>
<g id="Background_Simple">
	<g>
		<path class="st0" d="M444.11,113.28c-33.61-47.04-88.91-75.18-145.12-80.94c-53.62-5.5-115.97,3.81-149.19,51.07
			c-21.87,31.12-26.84,70.9-45.39,103.8c-9.22,16.35-22.39,25.08-35.73,37.48c-32.5,30.23-53.34,74.5-41.16,119.6
			c20.37,75.41,96.12,106.9,167.13,101.75c93.84-6.81,158.43-28.46,209.76-72.29c26.66-22.76,52.76-49.01,66.35-82.2
			c20.56-50.2,11.31-108.61-13.1-156.05C453.66,127.7,449.12,120.28,444.11,113.28z"/>
		<path class="st1" d="M444.11,113.28c-33.61-47.04-88.91-75.18-145.12-80.94c-53.62-5.5-115.97,3.81-149.19,51.07
			c-21.87,31.12-26.84,70.9-45.39,103.8c-9.22,16.35-22.39,25.08-35.73,37.48c-32.5,30.23-53.34,74.5-41.16,119.6
			c20.37,75.41,96.12,106.9,167.13,101.75c93.84-6.81,158.43-28.46,209.76-72.29c26.66-22.76,52.76-49.01,66.35-82.2
			c20.56-50.2,11.31-108.61-13.1-156.05C453.66,127.7,449.12,120.28,444.11,113.28z"/>
	</g>
</g>
<g id="Character">
	<g>
		<g>
			<path class="st2" d="M145.25,170.45c0,0-9.23,43.42-6.51,51.02c2.71,7.6,3.8,23.88,3.8,29.31c0,5.43-25.51,46.68-26.05,53.19
				c-0.54,6.51,5.43,11.94,8.68,13.03c3.26,1.09,10.86,2.71,10.86,2.71s14.65,51.02,18.45,59.16c3.8,8.14,8.14,25.51,24.42,30.4
				c16.28,4.88,33.65-4.34,33.65-4.34s11.4,14.11,16.28,25.51c4.88,11.4,7.6,32.57,7.6,32.57l137.86-70.02
				c0,0-15.74-42.34-15.74-59.16s16.83-52.65,17.37-73.82c0.54-21.17-25.51-51.56-48.85-60.25c-23.34-8.68-42.34,2.71-56.45,7.06
				c-14.11,4.34-36.91,1.63-40.71-11.4c-3.8-13.03-2.17-24.97-24.97-33.11c-22.8-8.14-56.45,2.17-56.45,2.17L145.25,170.45z"/>
			<g>
				<line class="st2" x1="397.49" y1="411.46" x2="400" y2="416.15"/>
				<polyline class="st2" points="212.67,474.82 384.67,387.48 395.61,407.94 				"/>
			</g>
			<path class="st3" d="M231.05,436.69c3.16-2.76,6.36-5.99,8.95-9.54c8-11,38-79,38-79s-6,12-16,23s-49.45,33.78-49.45,33.78
				s11.4,14.11,16.28,25.51C229.63,432.31,230.37,434.44,231.05,436.69z"/>
			<g>
				<path class="st4" d="M179.99,250.78c0,5.7-1.7,10.31-3.8,10.31c-2.1,0-3.8-4.62-3.8-10.31c0-5.7,1.7-10.31,3.8-10.31
					C178.28,240.47,179.99,245.09,179.99,250.78z"/>
				<path class="st4" d="M166.34,217.92c-5.88,1.45-10.08,4.72-8.61,10.61c1.63,6.51,4.34,3.8,15.2-1.09
					c10.86-4.88,19.54,5.97,23.88,4.88c4.56-1.14-5.64-11.41-6.91-12.13C180.53,214.96,174.58,215.88,166.34,217.92z"/>
				<path class="st5" d="M326.62,262.67c-0.39,1.97-0.75,3.19-0.75,3.19"/>
				<path class="st5" d="M286.91,274.12c0,0-5.43-5.43-4.88-15.2c0.54-9.77,4.34-27.14,16.83-30.4
					c12.48-3.26,24.86,6.07,27.82,17.66c1.28,5.01,0.91,10.44,0.32,14.33"/>
				<path class="st3" d="M284.74,246.9c0,0,3.8-4.88,10.31,2.17c6.51,7.06,3.8,17.37-0.54,22.8c-4.34,5.43-10.86,1.63-11.94-2.71
					C281.48,264.81,281.48,251.78,284.74,246.9z"/>
				<path class="st5" d="M278.77,308.32c0,0,1.51,4.5,8.68,4.88c8.94,0.48,22.8-10.86,22.8-10.86"/>
				<path class="st5" d="M171.33,262.85c0,0,3.57,2.04,11.72-1.02"/>
				<g>
					<path class="st5" d="M153.93,312.29c0.13-0.89,0.1-1.86-0.15-2.9"/>
					<path class="st5" d="M136.84,315.47c0,0,6.07,1.6,9.91,2.24c2.58,0.43,5.46-1.02,6.67-3.68"/>
				</g>
			</g>
			<g>
				<g>
					<path class="st5" d="M147.84,330.95c0,0,17.14,2.98,30.93-14.16"/>
					<path class="st3" d="M154.56,331.03c0,0,3.33,13.33-1.88,20.41c0,0,10.43,3.35,20.49-7.45c10.06-10.81,2.33-23.34,2.33-23.34
						S165.66,330.28,154.56,331.03z"/>
					<path class="st2" d="M157.52,350.58l-0.22,1.34c3.98-0.13,9.99-1.61,15.88-7.93c0.92-0.99,1.69-1.99,2.33-3
						C164.72,340.06,157.52,350.58,157.52,350.58z"/>
				</g>
				<path class="st2" d="M177.95,327.35c-0.78-3.98-2.45-6.69-2.45-6.69s-9.84,9.63-20.94,10.38c0,0,0.44,1.75,0.75,4.31
					C159.13,335.55,167.83,334.98,177.95,327.35z"/>
				<path class="st2" d="M171.8,345.37c-7.78,2.76-14.15,3.08-17.48,3c-0.42,1.1-0.95,2.14-1.64,3.07
					C152.68,351.44,162.18,354.49,171.8,345.37z"/>
			</g>
		</g>
		<path class="st3" d="M225.04,78.18c0,0-26.05,10.86-44.51,5.97s-22.25-13.57-30.94-12.48c-8.68,1.09-16.28,10.31-16.28,24.42
			c0,14.11,1.63,19.54,1.63,19.54s-13.57-2.71-29.31,11.4c-15.74,14.11-4.88,52.11,11.94,54.28c16.83,2.17,45.05-17.37,81.96-3.26
			c0,0-6.51,29.31,9.77,37.99c16.28,8.68,30.94,12.48,33.11,16.83c2.17,4.34,4.34,18.45,14.11,21.17
			c9.77,2.71,16.28-4.34,17.37-12.48c1.09-8.14,5.43-20.63,20.08-25.51c14.65-4.88,37.99,5.43,40.71,32.57
			c2.71,27.14-14.11,47.76-16.28,48.85c-2.17,1.09-8.14,4.88-8.14,4.88s-3.26,13.57,11.94,24.97c15.2,11.4,27.68,21.71,35.82,17.91
			c8.14-3.8,10.31-21.17,12.48-28.77c2.17-7.6,29.31-22.25,37.99-65.13c8.68-42.88,3.8-86.84-8.14-113.98
			c-11.94-27.14-51.02-60.25-93.9-68.93C263.57,59.73,225.04,78.18,225.04,78.18z"/>
	</g>
</g>
<g id="Arrows">
	<g>
		<path class="st6" d="M225.41,220.32v-41.4c0-4.23,3.43-7.66,7.66-7.66h41.61c3.29,0,5.96-2.67,5.96-5.96v-7.56"/>
		<path class="st6" d="M241.39,227.59v-12.41c0-4.11,3.33-7.44,7.44-7.44h31.67c3.81,0,6.9-3.09,6.9-6.9v-20.45
			c0-3.29,2.67-5.96,5.96-5.96h2.31c3.15,0,5.7-2.55,5.7-5.7V158.2"/>
		<polyline class="st6" points="383.24,299.72 341.12,299.72 327.94,289.55 		"/>
		<line class="st7" x1="429.23" y1="299.72" x2="383.24" y2="299.72"/>
		<path class="st6" d="M322.24,158.36v7.88c0,2.6,2.11,4.7,4.7,4.7h22.26c3.29,0,5.96,2.67,5.96,5.96v23.15
			c0,3.76-1.6,7.35-4.39,9.87l-20.1,18.12"/>
		<path class="st6" d="M176.03,170.46v-53.91c0-3.11,2.52-5.64,5.64-5.64h59.04c3.14,0,5.69,2.55,5.69,5.69v4.25
			c0,2.46,1.99,4.45,4.45,4.45h11.77"/>
		<g>
			<polyline class="st7" points="74,335.55 120.36,335.55 136.51,320.12 			"/>
			<polyline class="st7" points="74,367.01 126.17,367.01 140.69,353.46 			"/>
			<g>
				<g>
					<g>
						<line class="st8" x1="77.33" y1="251.79" x2="78.83" y2="251.79"/>
						<line class="st9" x1="81.86" y1="251.79" x2="158.98" y2="251.79"/>
						<line class="st8" x1="160.49" y1="251.79" x2="161.99" y2="251.79"/>
					</g>
				</g>
				<polygon class="st4" points="124.63,251.9 112.49,247.19 112.49,256.62 				"/>
			</g>
			<g>
				<g>
					<g>
						<line class="st8" x1="176.03" y1="211.13" x2="176.03" y2="209.63"/>
						<line class="st10" x1="176.03" y1="206.73" x2="176.03" y2="173.41"/>
						<line class="st8" x1="176.03" y1="171.96" x2="176.03" y2="170.46"/>
					</g>
				</g>
				<polygon class="st4" points="176.01,177.02 171.29,189.17 180.72,189.17 				"/>
			</g>
			<g>
				<path class="st7" d="M147.86,306.42l9.33-11.27c2.43-2.93,6.04-4.63,9.84-4.63h47.73c5.88,0,10.65-4.77,10.65-10.65v-59.55"/>
				<polygon class="st4" points="225.26,233.02 220.54,245.17 229.97,245.17 				"/>
			</g>
			<g>
				<path class="st7" d="M180.39,323.44h49.86c6.15,0,11.13-4.99,11.13-11.13v-84.72"/>
				<polygon class="st4" points="241.51,250.77 236.79,262.92 246.22,262.92 				"/>
			</g>
			<g>
				<line class="st7" x1="327.94" y1="289.55" x2="302.87" y2="270.19"/>
				<polygon class="st4" points="300.82,269.11 308.15,279.88 313.5,272.12 				"/>
			</g>
		</g>
	</g>
	<path class="st6" d="M381,114.85v6.99c0,2.3,3.17,4.17,7.09,4.17h33.53c4.96,0,8.98,2.37,8.98,5.28v20.52
		c0,3.34-2.4,6.52-6.62,8.75l-30.29,16.07"/>
</g>
<g id="Icons">
	<g>
		<circle class="st2" cx="211.5" cy="108.65" r="24.5"/>
		<path class="st11" d="M235.8,111.73l-9.8-8.58l-13,11l-5-5l-18.54,10.2c3.97,8.17,12.35,13.8,22.04,13.8
			C223.99,133.15,234.29,123.8,235.8,111.73z"/>
		<circle class="st11" cx="206" cy="100.15" r="6"/>
	</g>
	<g>
		<circle class="st2" cx="356.5" cy="205.65" r="24.5"/>
		<path class="st2" d="M363.44,189.1c6.46,2.71,11,9.1,11,16.55c0,6.19-3.14,11.65-7.91,14.87"/>
		<path class="st2" d="M361.07,194.62c4.33,1.79,7.37,6.06,7.37,11.04c0,4.37-2.35,8.19-5.85,10.28"/>
		<path class="st2" d="M358.44,200.03c2.33,0.8,4.01,3.02,4.01,5.62c0,2.46-1.5,4.57-3.63,5.48"/>
		<polygon class="st11" points="348.82,198.38 339.66,198.38 339.66,212.17 348.82,212.17 354.82,216.55 354.82,194 		"/>
	</g>
	<g>
		<circle class="st2" cx="227.52" cy="171.25" r="24.5"/>
		<g>
			<path class="st5" d="M235.54,150.67c0,0-3.39,4.52-10.55,7.53c-7.16,3.01-9.79,3.93-9.79,9.42c0,3.39,3.01,7.91,6.78,7.91
				c3.77,0,6.4,5.27,3.01,7.91c-3.39,2.64,0.38,6.03,0.38,6.03"/>
			<path class="st4" d="M233.2,175.47c-0.33,1.19-2.88,1.52-5.7,0.75c-2.82-0.78-4.83-2.38-4.5-3.57c0.33-1.19,2.88-1.52,5.7-0.75
				S233.53,174.28,233.2,175.47z"/>
			<path class="st5" d="M211.39,179.65c1.91-0.1,4.77-0.69,8.7-2.61"/>
			<path class="st5" d="M208.42,179.3c0,0,0.45,0.21,1.4,0.31"/>
			<path class="st5" d="M217.45,182.77c-0.49,0.26-0.99,0.49-1.5,0.67"/>
			<path class="st5" d="M223.86,177.42c0,0-1.89,2.26-4.46,4.12"/>
			<path class="st5" d="M233.71,177.43c0,0,3.36,0,3.89-4.07c0.53-4.07-1.95-5.13-1.95-5.13"/>
		</g>
	</g>
	<g>
		<circle class="st2" cx="284.61" cy="207.83" r="24.5"/>
		<path class="st3" d="M267.09,208.31h34.4c0,0-4.16-11.02-17.33-11.29C271.29,196.76,267.09,208.31,267.09,208.31z"/>
		<path class="st11" d="M285.32,203.85h-1.12c-4.96-2.69-7.92,0-7.92,0v14.7c0,4.5,3.64,8.14,8.14,8.14h0c4.5,0,8.14-3.64,8.14-8.14
			v-14.7C289.41,202.67,286.55,203.4,285.32,203.85z"/>
		<line class="st5" x1="284.68" y1="216.45" x2="284.68" y2="217.76"/>
		<line class="st5" x1="284.68" y1="204.64" x2="284.68" y2="214.61"/>
	</g>
	<circle class="st2" cx="417" cy="172.83" r="24.5"/>
	<g>
		<path class="st11" d="M430.59,168.24c0-3.92-3.19-7.12-7.11-7.12c-2.88,0-5.36,1.72-6.48,4.18c-1.12-2.46-3.6-4.18-6.48-4.18
			c-3.92,0-7.12,3.19-7.12,7.12c0,0.83,0.14,1.62,0.4,2.36c0.3,0.84,0.75,1.61,1.32,2.27c0.24,0.28,0.51,0.55,0.79,0.79l10.85,10.78
			c0.07,0.07,0.15,0.1,0.24,0.1c0.09,0,0.18-0.03,0.24-0.1l11.26-11.18l0,0c0.73-0.73,1.3-1.62,1.66-2.61
			C430.45,169.9,430.59,169.08,430.59,168.24z"/>
	</g>
</g>
<g id="Device">
	<path class="st2" d="M402.61,127.96v-7.59l-7.12-0.71c-0.56-2.64-1.6-5.1-3.02-7.29l4.53-5.54l-5.37-5.37l-5.54,4.53
		c-2.19-1.42-4.65-2.46-7.29-3.02l-0.71-7.12h-7.59l-0.71,7.12c-2.64,0.56-5.1,1.6-7.29,3.02l-5.54-4.53l-5.37,5.37l4.53,5.54
		c-1.42,2.19-2.46,4.65-3.02,7.29l-7.12,0.71v7.59l7.12,0.71c0.56,2.64,1.6,5.1,3.02,7.29l-4.53,5.54l5.37,5.37l5.54-4.53
		c2.19,1.42,4.65,2.46,7.29,3.02l0.71,7.12h7.59l0.71-7.12c2.64-0.56,5.1-1.6,7.29-3.02l5.54,4.53l5.37-5.37l-4.53-5.54
		c1.42-2.19,2.47-4.65,3.02-7.29L402.61,127.96z M374.3,135.07c-6.02,0-10.9-4.88-10.9-10.9c0-6.02,4.88-10.9,10.9-10.9
		c6.02,0,10.9,4.88,10.9,10.9C385.2,130.19,380.32,135.07,374.3,135.07z"/>
	<path class="st2" d="M318.34,92.43v-6.28l-5.88-0.59c-0.46-2.18-1.32-4.22-2.5-6.03l3.75-4.58l-4.44-4.44l-4.58,3.75
		c-1.81-1.18-3.84-2.04-6.03-2.5l-0.59-5.88h-6.28l-0.59,5.88c-2.18,0.46-4.22,1.32-6.03,2.5l-4.58-3.75l-4.44,4.44l3.75,4.58
		c-1.18,1.81-2.04,3.84-2.5,6.03l-5.88,0.59v6.28l5.88,0.59c0.46,2.18,1.32,4.22,2.5,6.03l-3.75,4.58l4.44,4.44l4.58-3.75
		c1.81,1.18,3.84,2.04,6.03,2.5l0.59,5.88h6.28l0.59-5.88c2.18-0.46,4.22-1.32,6.03-2.5l4.58,3.75l4.44-4.44l-3.75-4.58
		c1.18-1.81,2.04-3.84,2.5-6.03L318.34,92.43z M294.94,98.3c-4.98,0-9.01-4.04-9.01-9.02s4.04-9.01,9.01-9.01
		c4.98,0,9.01,4.04,9.01,9.01S299.92,98.3,294.94,98.3z"/>
	<path class="st11" d="M372.76,163.09H271.22c-5.23,0-9.48-4.24-9.48-9.48V94.72c0-5.23,4.24-9.48,9.48-9.48h101.54
		c5.23,0,9.48,4.24,9.48,9.48v58.89C382.24,158.85,377.99,163.09,372.76,163.09z"/>
	<path class="st2" d="M367.21,157h-90.45c-3.67,0-6.64-2.97-6.64-6.64V97.97c0-3.67,2.97-6.64,6.64-6.64h90.45
		c3.67,0,6.64,2.97,6.64,6.64v52.38C373.85,154.03,370.88,157,367.21,157z"/>
	<g>
		<path class="st2" d="M351.5,136h-59.03c-2.23,0-4.03-1.81-4.03-4.03l0,0c0-2.23,1.81-4.03,4.03-4.03h59.03
			c2.23,0,4.03,1.81,4.03,4.03l0,0C355.54,134.19,353.73,136,351.5,136z"/>
		<path class="st11" d="M331.75,127.93h-39.28c-2.23,0-4.03,1.81-4.03,4.03s1.81,4.03,4.03,4.03h39.28V127.93z"/>
	</g>
	<g>
		<g>
			<path d="M291.11,117.54c0.75,0,1.31,0.16,1.68,0.49s0.56,0.79,0.56,1.39c0,0.27-0.04,0.53-0.12,0.77
				c-0.08,0.25-0.2,0.47-0.38,0.66c-0.17,0.19-0.4,0.35-0.69,0.46c-0.29,0.11-0.64,0.17-1.06,0.17h-0.45v1.96h-1.59v-5.89H291.11z
				 M291.08,118.83h-0.41v1.35h0.31c0.14,0,0.26-0.02,0.38-0.07s0.21-0.12,0.28-0.23c0.07-0.11,0.11-0.25,0.11-0.43
				c0-0.19-0.05-0.34-0.17-0.45C291.48,118.89,291.31,118.83,291.08,118.83z"/>
			<path d="M296.22,117.54c0.53,0,0.98,0.06,1.33,0.2s0.62,0.32,0.8,0.58c0.18,0.26,0.27,0.58,0.27,0.96c0,0.24-0.04,0.46-0.12,0.65
				s-0.2,0.37-0.34,0.53c-0.15,0.15-0.33,0.29-0.53,0.41l1.72,2.57h-1.81l-1.25-2.14h-0.4v2.14h-1.59v-5.89H296.22z M296.2,118.75
				h-0.31v1.35h0.3c0.25,0,0.45-0.05,0.6-0.16c0.16-0.11,0.23-0.3,0.23-0.58c0-0.19-0.06-0.34-0.19-0.45
				C296.69,118.8,296.49,118.75,296.2,118.75z"/>
			<path d="M305.39,120.48c0,0.45-0.05,0.87-0.16,1.24c-0.11,0.37-0.28,0.69-0.51,0.96c-0.23,0.27-0.53,0.48-0.89,0.62
				c-0.36,0.14-0.8,0.22-1.3,0.22c-0.49,0-0.92-0.07-1.28-0.22c-0.36-0.14-0.66-0.35-0.89-0.62c-0.23-0.27-0.41-0.59-0.52-0.96
				c-0.11-0.37-0.17-0.79-0.17-1.25c0-0.61,0.1-1.15,0.3-1.6c0.2-0.45,0.52-0.8,0.94-1.05s0.97-0.37,1.63-0.37
				c0.67,0,1.22,0.12,1.64,0.38c0.42,0.25,0.73,0.6,0.92,1.06S305.39,119.87,305.39,120.48z M301.34,120.48
				c0,0.35,0.04,0.66,0.12,0.92c0.08,0.26,0.21,0.45,0.38,0.59c0.17,0.14,0.4,0.21,0.68,0.21c0.29,0,0.53-0.07,0.7-0.21
				c0.17-0.14,0.3-0.33,0.38-0.59c0.08-0.25,0.12-0.56,0.12-0.92c0-0.53-0.09-0.95-0.27-1.26c-0.18-0.31-0.48-0.46-0.92-0.46
				c-0.29,0-0.52,0.07-0.7,0.21c-0.18,0.14-0.3,0.34-0.38,0.6S301.34,120.13,301.34,120.48z"/>
			<path d="M309.08,118.76c-0.19,0-0.36,0.04-0.5,0.12c-0.15,0.08-0.27,0.19-0.38,0.34c-0.11,0.15-0.19,0.33-0.24,0.55
				c-0.06,0.22-0.08,0.46-0.08,0.74c0,0.37,0.05,0.68,0.14,0.94c0.09,0.25,0.24,0.44,0.43,0.57c0.19,0.13,0.43,0.19,0.72,0.19
				c0.26,0,0.52-0.04,0.76-0.11c0.24-0.07,0.49-0.16,0.74-0.26v1.35c-0.26,0.12-0.53,0.2-0.8,0.25c-0.27,0.05-0.56,0.08-0.87,0.08
				c-0.64,0-1.16-0.13-1.57-0.38s-0.71-0.61-0.9-1.06c-0.19-0.45-0.29-0.98-0.29-1.57c0-0.45,0.06-0.85,0.19-1.23
				c0.12-0.37,0.31-0.69,0.55-0.97c0.24-0.27,0.54-0.48,0.9-0.63c0.36-0.15,0.76-0.22,1.22-0.22c0.29,0,0.58,0.03,0.9,0.1
				c0.32,0.07,0.62,0.17,0.92,0.32l-0.49,1.25c-0.22-0.1-0.43-0.19-0.65-0.26C309.56,118.8,309.33,118.76,309.08,118.76z"/>
			<path d="M315.31,123.44h-3.5v-5.89h3.5v1.28h-1.91v0.93h1.77v1.28h-1.77v1.11h1.91V123.44z"/>
			<path d="M320.2,121.65c0,0.32-0.08,0.62-0.24,0.91s-0.41,0.52-0.75,0.7s-0.78,0.27-1.32,0.27c-0.27,0-0.5-0.01-0.71-0.04
				c-0.2-0.02-0.39-0.06-0.57-0.12c-0.17-0.05-0.36-0.13-0.54-0.22v-1.42c0.32,0.16,0.64,0.28,0.97,0.37s0.62,0.13,0.88,0.13
				c0.16,0,0.29-0.02,0.39-0.06c0.1-0.04,0.17-0.09,0.22-0.15c0.05-0.07,0.07-0.14,0.07-0.23c0-0.1-0.04-0.19-0.11-0.26
				c-0.07-0.07-0.19-0.15-0.34-0.22c-0.16-0.08-0.36-0.17-0.62-0.29c-0.22-0.1-0.41-0.21-0.59-0.31c-0.18-0.11-0.33-0.23-0.45-0.37
				c-0.12-0.14-0.22-0.3-0.29-0.49c-0.07-0.19-0.1-0.4-0.1-0.66c0-0.38,0.09-0.7,0.28-0.95c0.19-0.26,0.45-0.45,0.78-0.58
				c0.33-0.13,0.72-0.19,1.16-0.19c0.38,0,0.73,0.04,1.04,0.13s0.58,0.18,0.83,0.29l-0.49,1.23c-0.25-0.12-0.5-0.21-0.75-0.28
				c-0.24-0.07-0.47-0.1-0.68-0.1c-0.14,0-0.25,0.02-0.34,0.05c-0.09,0.03-0.15,0.08-0.19,0.13c-0.04,0.06-0.06,0.12-0.06,0.19
				c0,0.09,0.04,0.17,0.11,0.25s0.19,0.15,0.36,0.24s0.4,0.19,0.69,0.33c0.29,0.13,0.53,0.27,0.73,0.42
				c0.2,0.15,0.36,0.33,0.46,0.54C320.15,121.08,320.2,121.34,320.2,121.65z"/>
			<path d="M324.73,123.44l-0.29-1.1h-1.92l-0.3,1.1h-1.75l1.92-5.92h2.12l1.95,5.92H324.73z M324.11,121.02l-0.25-0.97
				c-0.03-0.1-0.07-0.25-0.12-0.45c-0.05-0.19-0.1-0.4-0.15-0.6c-0.05-0.21-0.09-0.38-0.12-0.51c-0.02,0.13-0.06,0.3-0.1,0.5
				c-0.04,0.2-0.09,0.39-0.14,0.59c-0.05,0.19-0.09,0.35-0.12,0.48l-0.25,0.97H324.11z"/>
			<path d="M332.72,123.44h-2.09l-2.15-4.15h-0.04c0.01,0.13,0.03,0.28,0.04,0.46c0.01,0.18,0.02,0.36,0.03,0.54
				c0.01,0.18,0.01,0.35,0.01,0.5v2.66h-1.41v-5.89h2.08l2.14,4.1h0.02c-0.01-0.13-0.02-0.28-0.02-0.45
				c-0.01-0.17-0.02-0.34-0.02-0.52c-0.01-0.17-0.01-0.33-0.01-0.46v-2.66h1.42V123.44z"/>
			<path d="M338.99,120.36c0,0.69-0.13,1.25-0.38,1.71c-0.26,0.45-0.62,0.79-1.08,1.02c-0.46,0.23-1.01,0.34-1.63,0.34h-1.91v-5.89
				h2.04c0.63,0,1.17,0.11,1.61,0.33c0.44,0.22,0.78,0.54,1.01,0.96C338.88,119.24,338.99,119.76,338.99,120.36z M337.34,120.42
				c0-0.36-0.05-0.65-0.14-0.89c-0.1-0.23-0.24-0.41-0.43-0.53c-0.19-0.12-0.43-0.18-0.72-0.18h-0.46v3.3h0.35
				c0.48,0,0.84-0.14,1.06-0.42C337.23,121.43,337.34,121,337.34,120.42z"/>
			<path d="M345.56,120.48c0,0.45-0.05,0.87-0.16,1.24c-0.11,0.37-0.28,0.69-0.51,0.96c-0.23,0.27-0.53,0.48-0.89,0.62
				c-0.36,0.14-0.8,0.22-1.3,0.22c-0.49,0-0.92-0.07-1.28-0.22c-0.36-0.14-0.66-0.35-0.89-0.62c-0.23-0.27-0.41-0.59-0.52-0.96
				c-0.11-0.37-0.17-0.79-0.17-1.25c0-0.61,0.1-1.15,0.3-1.6c0.2-0.45,0.52-0.8,0.94-1.05s0.97-0.37,1.63-0.37
				c0.67,0,1.22,0.12,1.64,0.38c0.42,0.25,0.73,0.6,0.92,1.06S345.56,119.87,345.56,120.48z M341.51,120.48
				c0,0.35,0.04,0.66,0.12,0.92c0.08,0.26,0.21,0.45,0.38,0.59c0.17,0.14,0.4,0.21,0.68,0.21c0.29,0,0.53-0.07,0.7-0.21
				c0.17-0.14,0.3-0.33,0.38-0.59c0.08-0.25,0.12-0.56,0.12-0.92c0-0.53-0.09-0.95-0.27-1.26c-0.18-0.31-0.48-0.46-0.92-0.46
				c-0.29,0-0.52,0.07-0.7,0.21c-0.18,0.14-0.3,0.34-0.38,0.6S341.51,120.13,341.51,120.48z"/>
			<path d="M346.34,122.77c0-0.29,0.08-0.49,0.25-0.6c0.17-0.12,0.37-0.17,0.61-0.17c0.22,0,0.42,0.06,0.58,0.17
				c0.16,0.12,0.25,0.32,0.25,0.6c0,0.27-0.08,0.47-0.25,0.59s-0.36,0.18-0.58,0.18c-0.24,0-0.44-0.06-0.61-0.18
				S346.34,123.04,346.34,122.77z"/>
			<path d="M348.72,122.77c0-0.29,0.08-0.49,0.25-0.6c0.17-0.12,0.37-0.17,0.61-0.17c0.22,0,0.42,0.06,0.58,0.17
				c0.16,0.12,0.25,0.32,0.25,0.6c0,0.27-0.08,0.47-0.25,0.59s-0.36,0.18-0.58,0.18c-0.24,0-0.44-0.06-0.61-0.18
				S348.72,123.04,348.72,122.77z"/>
			<path d="M351.11,122.77c0-0.29,0.08-0.49,0.25-0.6c0.17-0.12,0.37-0.17,0.61-0.17c0.22,0,0.42,0.06,0.58,0.17
				c0.16,0.12,0.25,0.32,0.25,0.6c0,0.27-0.08,0.47-0.25,0.59s-0.36,0.18-0.58,0.18c-0.24,0-0.44-0.06-0.61-0.18
				S351.11,123.04,351.11,122.77z"/>
			<path d="M353.5,122.77c0-0.29,0.08-0.49,0.25-0.6c0.17-0.12,0.37-0.17,0.61-0.17c0.22,0,0.42,0.06,0.58,0.17
				c0.16,0.12,0.25,0.32,0.25,0.6c0,0.27-0.08,0.47-0.25,0.59s-0.36,0.18-0.58,0.18c-0.24,0-0.44-0.06-0.61-0.18
				S353.5,123.04,353.5,122.77z"/>
		</g>
	</g>
</g>
</svg>
